<svg version="1.1" shape-rendering="geometricPrecision" xmlns="http://www.w3.org/2000/svg" x="0px" y="0px" width="253.8px" height="253.8px" viewBox="0 0 253.8 253.8" xml:space="preserve">
<style type="text/css">
	.st0{fill:url(#SVGID_1_);}
</style>
<linearGradient id="SVGID_1_" gradientUnits="userSpaceOnUse" x1="17" y1="127" x2="238.2031" y2="127">
	<stop  offset="3.820586e-03" style="stop-color:#000000"/>
	<stop  offset="0.3957" style="stop-color:#1C1C1C"/>
	<stop  offset="0.7429" style="stop-color:#2D2D2D"/>
	<stop  offset="1" style="stop-color:#333333"/>
</linearGradient>
<path class="st0" d="M236,186l-26.3-15.5c0.4-1.3,0.6-2.7,0.6-4.2c0-7.6-5.3-13.9-12.4-15.5v-46c4.1-1,7.9-3.5,10.2-7.5
	c2.3-4,2.6-8.5,1.4-12.5L236,69.7c1.4-0.8,1.9-2.6,1.1-4.1c-0.8-1.4-2.6-1.9-4.1-1.1l-26.4,15c-1.2-1.5-2.7-2.8-4.5-3.8
	c-6.5-3.8-14.6-2.3-19.5,3l-37-21.1c1.8-5,1.5-10.8-1.3-15.8c-2.6-4.5-6.7-7.5-11.4-8.8V5.2c0-2.7-2.2-5-5-5c-2.7,0-5,2.2-5,5V33
	c-1.5,0.4-3,1-4.4,1.8c-8,4.6-11.4,14.1-8.4,22.5L72.8,78.7c-2.9-3.1-7-5-11.5-5c-3.5,0-6.7,1.1-9.3,3L25.2,61
	c-2.6-1.5-5.9-0.7-7.5,1.9c-1.5,2.6-0.7,5.9,1.9,7.5l26.2,15.4c-0.3,1.2-0.5,2.5-0.5,3.8c0,7.5,5.3,13.8,12.3,15.4v43.5
	c-5,1-9.5,4-12.3,8.8c-2.8,4.9-3.1,10.5-1.3,15.4l-23.8,13.5c-1.2,0.7-1.6,2.2-0.9,3.4c0.5,0.8,1.3,1.3,2.2,1.3
	c0.4,0,0.8-0.1,1.2-0.3l23.6-13.5c1.5,2.1,3.4,3.9,5.7,5.2c7.7,4.4,17.2,2.7,22.9-3.7l34.8,19.9c-1.8,5-1.5,10.7,1.4,15.7
	c2.9,5.1,7.9,8.3,13.3,9.2v27c0,1.9,1.6,3.5,3.5,3.5s3.5-1.6,3.5-3.5v-27.1c1.9-0.4,3.7-1.1,5.4-2.1c8-4.6,11.3-14.1,8.4-22.5
	l37.5-21.4c2.9,3,7,4.9,11.5,4.9c4.1,0,7.8-1.5,10.6-4.1l26.5,15.6c0.7,0.4,1.5,0.6,2.3,0.6c1.5,0,3-0.8,3.8-2.2
	C238.8,190,238.1,187.2,236,186z M142.6,193.4c-5.6-7.4-16-9.7-24.3-4.9c-2.2,1.3-4,2.9-5.5,4.8l-34.5-19.7c3.5-8.4,0.4-18.3-7.7-23
	c-2.2-1.2-4.5-2-6.8-2.3v-43.1c7.6-1.2,13.4-7.7,13.4-15.6c0-2.1-0.4-4-1.1-5.8l37.2-21.2c5.6,7.4,16,9.6,24.3,4.9
	c2.2-1.2,4-2.8,5.4-4.7l36.7,21c-2.8,7.2,0,15.5,6.8,19.5c1.8,1,3.6,1.6,5.5,1.9v45.6c-7.6,1.2-13.4,7.7-13.4,15.6
	c0,2.1,0.4,4.1,1.2,5.9L142.6,193.4z"/>
</svg>
