<?xml version="1.0" encoding="UTF-8" standalone="no"?>
<!-- Created with Inkscape (http://www.inkscape.org/) -->

<svg
   width="771"
   height="1628"
   version="1.1"
   viewBox="0 0 771 1628"
   id="svg10"
   xmlns="http://www.w3.org/2000/svg"
   xmlns:svg="http://www.w3.org/2000/svg"
   xmlns:rdf="http://www.w3.org/1999/02/22-rdf-syntax-ns#"
   xmlns:cc="http://creativecommons.org/ns#"
   xmlns:dc="http://purl.org/dc/elements/1.1/">
  <defs
     id="defs10">
    <clipPath
       clipPathUnits="userSpaceOnUse"
       id="clipPath20">
      <rect
         x="31.25"
         y="-181.03"
         width="705"
         height="1568"
         rx="90"
         ry="90"
         fill="#dddddd"
         id="rect20"
         style="display:none" />
      <path
         id="lpe_path-effect20"
         class="powerclip"
         d="m -5,-212.28 h 781 v 1638 H -5 Z m 126.25,31.25 c -49.86,0 -90,40.14 -90,90.000001 V 1296.97 c 0,49.86 40.14,90 90,90 h 525 c 49.86,0 90,-40.14 90,-90 V -91.029999 C 736.25,-140.89 696.11,-181.03 646.25,-181.03 Z" />
    </clipPath>
  </defs>
  <metadata
     id="metadata1">
    <rdf:RDF>
      <cc:Work
         rdf:about="">
        <dc:format>image/svg+xml</dc:format>
        <dc:type
           rdf:resource="http://purl.org/dc/dcmitype/StillImage" />
        <dc:title />
      </cc:Work>
    </rdf:RDF>
  </metadata>
  <g
     transform="translate(0,207.28)"
     id="g10">
    <g
       id="g3"
       clip-path="url(#clipPath20)">
      <path
         x="761"
         y="215.72"
         width="10"
         height="120"
         rx="5"
         ry="5"
         fill="#343434"
         id="rect1"
         d="m 766,215.72 c 2.77,0 5,2.23 5,5 v 110 c 0,2.77 -2.23,5 -5,5 -2.77,0 -5,-2.23 -5,-5 v -110 c 0,-2.77 2.23,-5 5,-5 z" />
      <path
         x="761"
         y="405.72"
         width="10"
         height="220"
         rx="4.3333001"
         ry="5"
         fill="#343434"
         id="rect2"
         d="m 765.3333,405.72 h 1.3334 c 2.40065,0 4.3333,2.23 4.3333,5 v 210 c 0,2.77 -1.93265,5 -4.3333,5 h -1.3334 c -2.40065,0 -4.3333,-2.23 -4.3333,-5 v -210 c 0,-2.77 1.93265,-5 4.3333,-5 z" />
      <path
         x="6.25"
         y="-201.03"
         width="753.5"
         height="1615.5"
         rx="115"
         ry="115"
         fill="#333333"
         stroke="#525252"
         stroke-linecap="round"
         stroke-linejoin="round"
         stroke-width="12.5"
         id="rect3"
         d="m 121.25,-201.03 h 523.5 c 63.71,0 115,51.29 115,115.000001 V 1299.47 c 0,63.71 -51.29,115 -115,115 h -523.5 c -63.71,0 -115,-51.29 -115,-115 V -86.029999 C 6.25,-149.74 57.54,-201.03 121.25,-201.03 Z" />
    </g>
    <g
       fill="none"
       stroke="#000000"
       stroke-opacity="0.2"
       stroke-width="12.5"
       id="g8">
      <path
         d="m 6.25,25.717 v 15"
         id="path3" />
      <path
         d="m 375.5,-201.03 h 15"
         id="path4" />
      <path
         d="m 759.75,25.717 v 15"
         id="path5" />
      <path
         d="m 6.25,1250.6 v 15"
         id="path6" />
      <path
         d="m 759.75,1250.6 v 15"
         id="path7" />
      <path
         d="m 462.5,1414.5 h 15"
         id="path8" />
    </g>
    <circle
       cx="383"
       cy="-128.53"
       r="24"
       fill="#333333"
       id="circle8" />
    <circle
       cx="383"
       cy="-128.53"
       r="15"
       fill="#ddddff"
       fill-opacity="0.13333"
       id="circle9" />
    <circle
       cx="383"
       cy="-128.53"
       r="15"
       fill="#0088ff"
       fill-opacity="0.13333"
       id="circle10" />
  </g>
</svg>
