<?xml version="1.0" encoding="UTF-8"?>
<svg xmlns="http://www.w3.org/2000/svg" xmlns:xlink="http://www.w3.org/1999/xlink" width="1628" height="771" viewBox="0 0 1628 771">
<defs>
<clipPath id="clip-0">
<path clip-rule="nonzero" d="M 761 423 L 771 423 L 771 543 L 761 543 Z M 761 423 "/>
</clipPath>
<clipPath id="clip-1">
<path clip-rule="nonzero" d="M -5 -5 L 776 -5 L 776 1633 L -5 1633 Z M 121.25 26.25 C 71.390625 26.25 31.25 66.390625 31.25 116.25 L 31.25 1504.25 C 31.25 1554.109375 71.390625 1594.25 121.25 1594.25 L 646.25 1594.25 C 696.109375 1594.25 736.25 1554.109375 736.25 1504.25 L 736.25 116.25 C 736.25 66.390625 696.109375 26.25 646.25 26.25 Z M 121.25 26.25 "/>
</clipPath>
<clipPath id="clip-2">
<path clip-rule="nonzero" d="M 761 613 L 771 613 L 771 771 L 761 771 Z M 761 613 "/>
</clipPath>
<clipPath id="clip-3">
<path clip-rule="nonzero" d="M -5 -5 L 776 -5 L 776 1633 L -5 1633 Z M 121.25 26.25 C 71.390625 26.25 31.25 66.390625 31.25 116.25 L 31.25 1504.25 C 31.25 1554.109375 71.390625 1594.25 121.25 1594.25 L 646.25 1594.25 C 696.109375 1594.25 736.25 1554.109375 736.25 1504.25 L 736.25 116.25 C 736.25 66.390625 696.109375 26.25 646.25 26.25 Z M 121.25 26.25 "/>
</clipPath>
<clipPath id="clip-4">
<path clip-rule="nonzero" d="M 6 6 L 760 6 L 760 771 L 6 771 Z M 6 6 "/>
</clipPath>
<clipPath id="clip-5">
<path clip-rule="nonzero" d="M -5 -5 L 776 -5 L 776 1633 L -5 1633 Z M 121.25 26.25 C 71.390625 26.25 31.25 66.390625 31.25 116.25 L 31.25 1504.25 C 31.25 1554.109375 71.390625 1594.25 121.25 1594.25 L 646.25 1594.25 C 696.109375 1594.25 736.25 1554.109375 736.25 1504.25 L 736.25 116.25 C 736.25 66.390625 696.109375 26.25 646.25 26.25 Z M 121.25 26.25 "/>
</clipPath>
<clipPath id="clip-6">
<path clip-rule="nonzero" d="M 0 0 L 766 0 L 766 771 L 0 771 Z M 0 0 "/>
</clipPath>
<clipPath id="clip-7">
<path clip-rule="nonzero" d="M -5 -5 L 776 -5 L 776 1633 L -5 1633 Z M 121.25 26.25 C 71.390625 26.25 31.25 66.390625 31.25 116.25 L 31.25 1504.25 C 31.25 1554.109375 71.390625 1594.25 121.25 1594.25 L 646.25 1594.25 C 696.109375 1594.25 736.25 1554.109375 736.25 1504.25 L 736.25 116.25 C 736.25 66.390625 696.109375 26.25 646.25 26.25 Z M 121.25 26.25 "/>
</clipPath>
</defs>
<g clip-path="url(#clip-0)">
<g clip-path="url(#clip-1)">
<path fill-rule="nonzero" fill="rgb(20.392157%, 20.392157%, 20.392157%)" fill-opacity="1" d="M 766 423 C 768.769531 423 771 425.230469 771 428 L 771 538 C 771 540.769531 768.769531 543 766 543 C 763.230469 543 761 540.769531 761 538 L 761 428 C 761 425.230469 763.230469 423 766 423 Z M 766 423 "/>
</g>
</g>
<g clip-path="url(#clip-2)">
<g clip-path="url(#clip-3)">
<path fill-rule="nonzero" fill="rgb(20.392157%, 20.392157%, 20.392157%)" fill-opacity="1" d="M 765.332031 613 L 766.667969 613 C 769.066406 613 771 615.230469 771 618 L 771 828 C 771 830.769531 769.066406 833 766.667969 833 L 765.332031 833 C 762.933594 833 761 830.769531 761 828 L 761 618 C 761 615.230469 762.933594 613 765.332031 613 Z M 765.332031 613 "/>
</g>
</g>
<g clip-path="url(#clip-4)">
<g clip-path="url(#clip-5)">
<path fill-rule="nonzero" fill="rgb(20%, 20%, 20%)" fill-opacity="1" d="M 121.25 6.25 L 644.75 6.25 C 708.460938 6.25 759.75 57.539062 759.75 121.25 L 759.75 1506.75 C 759.75 1570.460938 708.460938 1621.75 644.75 1621.75 L 121.25 1621.75 C 57.539062 1621.75 6.25 1570.460938 6.25 1506.75 L 6.25 121.25 C 6.25 57.539062 57.539062 6.25 121.25 6.25 Z M 121.25 6.25 "/>
</g>
</g>
<g clip-path="url(#clip-6)">
<g clip-path="url(#clip-7)">
<path fill="none" stroke-width="12.5" stroke-linecap="round" stroke-linejoin="round" stroke="rgb(32.156863%, 32.156863%, 32.156863%)" stroke-opacity="1" stroke-miterlimit="4" d="M 121.25 -201.029999 L 644.75 -201.029999 C 708.460938 -201.029999 759.75 -149.740936 759.75 -86.029999 L 759.75 1299.470001 C 759.75 1363.180939 708.460938 1414.470001 644.75 1414.470001 L 121.25 1414.470001 C 57.539062 1414.470001 6.25 1363.180939 6.25 1299.470001 L 6.25 -86.029999 C 6.25 -149.740936 57.539062 -201.029999 121.25 -201.029999 Z M 121.25 -201.029999 " transform="matrix(1, 0, 0, 1, 0, 207.279999)"/>
</g>
</g>
<path fill="none" stroke-width="12.5" stroke-linecap="butt" stroke-linejoin="miter" stroke="rgb(0%, 0%, 0%)" stroke-opacity="0.2" stroke-miterlimit="4" d="M 6.25 25.716095 L 6.25 40.716095 " transform="matrix(1, 0, 0, 1, 0, 207.279999)"/>
<path fill="none" stroke-width="12.5" stroke-linecap="butt" stroke-linejoin="miter" stroke="rgb(0%, 0%, 0%)" stroke-opacity="0.2" stroke-miterlimit="4" d="M 375.5 -201.029999 L 390.5 -201.029999 " transform="matrix(1, 0, 0, 1, 0, 207.279999)"/>
<path fill="none" stroke-width="12.5" stroke-linecap="butt" stroke-linejoin="miter" stroke="rgb(0%, 0%, 0%)" stroke-opacity="0.2" stroke-miterlimit="4" d="M 759.75 25.716095 L 759.75 40.716095 " transform="matrix(1, 0, 0, 1, 0, 207.279999)"/>
<path fill-rule="nonzero" fill="rgb(20%, 20%, 20%)" fill-opacity="1" d="M 407 78.75 C 407 92.003906 396.253906 102.75 383 102.75 C 369.746094 102.75 359 92.003906 359 78.75 C 359 65.496094 369.746094 54.75 383 54.75 C 396.253906 54.75 407 65.496094 407 78.75 Z M 407 78.75 "/>
<path fill-rule="nonzero" fill="rgb(86.666667%, 86.666667%, 100%)" fill-opacity="0.13333" d="M 398 78.75 C 398 87.035156 391.285156 93.75 383 93.75 C 374.714844 93.75 368 87.035156 368 78.75 C 368 70.464844 374.714844 63.75 383 63.75 C 391.285156 63.75 398 70.464844 398 78.75 Z M 398 78.75 "/>
<path fill-rule="nonzero" fill="rgb(0%, 53.333333%, 100%)" fill-opacity="0.13333" d="M 398 78.75 C 398 87.035156 391.285156 93.75 383 93.75 C 374.714844 93.75 368 87.035156 368 78.75 C 368 70.464844 374.714844 63.75 383 63.75 C 391.285156 63.75 398 70.464844 398 78.75 Z M 398 78.75 "/>
</svg>
