<svg
  xmlns="http://www.w3.org/2000/svg"
  width="250"
  height="518"
  viewBox="0 0 250 518"
  fill="none"
>
  <path
    fill-rule="evenodd"
    d="M37.00 6.00H213.00A31.00 31.00 0 0 1 244.00 37.00V481.00A31.00 31.00 0 0 1 213.00 512.00H37.00A31.00 31.00 0 0 1 6.00 481.00V37.00A31.00 31.00 0 0 1 37.00 6.00Z M37.00 10.00H213.00A27.00 27.00 0 0 1 240.00 37.00V481.00A27.00 27.00 0 0 1 213.00 508.00H37.00A27.00 27.00 0 0 1 10.00 481.00V37.00A27.00 27.00 0 0 1 37.00 10.00Z"
    fill="#262626"
  />
  <path
    fill-rule="evenodd"
    d="M37.00 10.00H213.00A27.00 27.00 0 0 1 240.00 37.00V481.00A27.00 27.00 0 0 1 213.00 508.00H37.00A27.00 27.00 0 0 1 10.00 481.00V37.00A27.00 27.00 0 0 1 37.00 10.00Z M37.00 17.00H213.00A20.00 20.00 0 0 1 233.00 37.00V481.00A20.00 20.00 0 0 1 213.00 501.00H37.00A20.00 20.00 0 0 1 17.00 481.00V37.00A20.00 20.00 0 0 1 37.00 17.00Z"
    fill="#080808"
  />
  <rect x="243" y="150" width="2.5" height="38" rx="1.25" fill="#343434" />
  <rect x="243" y="212" width="2.5" height="70" rx="1.25" fill="#343434" />
  <circle cx="125.0" cy="34.5" r="7" fill="#080808" />
  <circle cx="125.0" cy="34.5" r="6.1" fill="#000" />
  <circle cx="125.0" cy="34.5" r="4.8" fill="#0F1415" />
  <circle cx="125.0" cy="34.5" r="3.05" fill="#151E1E" />
  <circle cx="125.4" cy="34.9" r="1.75" fill="#1B2123" />
  <circle cx="125.4" cy="34.9" r="0.6" fill="#3E4749" />
  <circle cx="122.9" cy="32.4" r="1.2" fill="#2a3133" opacity="0.7" />
</svg>
