<svg xmlns="http://www.w3.org/2000/svg" width="767" height="1616"><defs><clipPath id="a" clipPathUnits="userSpaceOnUse"><path d="M-5-497.98001h777V1127.52H-5Zm135 32.5c-56.785 0-102.5 45.715-102.5 102.5v1355.5C27.5 1049.305 73.215 1095.02 130 1095.02h502c56.785 0 102.5-45.715 102.5-102.50001v-1355.5c0-56.785-45.715-102.5-102.5-102.5z" class="powerclip"/></clipPath></defs><g transform="translate(0 493.48)"><g clip-path="url(#a)"><path fill="#393d46" d="M737-52.48h20c5.54 0 10 4.46 10 10v95c0 5.54-4.46 10-10 10h-20c-5.54 0-10-4.46-10-10v-95c0-5.54 4.46-10 10-10m0 190h20c5.54 0 10 4.46 10 10v185c0 5.54-4.46 10-10 10h-20c-5.54 0-10-4.46-10-10v-185c0-5.54 4.46-10 10-10"/><path fill="#111" stroke="#a9abab" stroke-width="10" d="M125-487.98001h512c66.48 0 120 53.52 120 120v1365.5C757 1064 703.48 1117.52 637 1117.52H125c-66.48 0-120-53.52-120-120.00001v-1365.5c0-66.48 53.52-120 120-120z"/></g><path fill="none" stroke="#393d46" stroke-width="10" d="M1.5e-8-242.48H10m742 0h10m-385-245h10M1.5e-8 965.02H10m742 0h10M462 1117.5h10"/><circle cx="381" cy="-409.98001" r="22.5" fill="#111"/><circle cx="381" cy="-409.98001" r="12.5" fill="#84f" fill-opacity=".13333"/><circle cx="381" cy="-409.98001" r="7.5" fill="#04f" fill-opacity=".26667"/></g></svg>