<?xml version="1.0" standalone="no"?>
<!DOCTYPE svg PUBLIC "-//W3C//DTD SVG 20010904//EN"
 "http://www.w3.org/TR/2001/REC-SVG-20010904/DTD/svg10.dtd">
<svg version="1.0" xmlns="http://www.w3.org/2000/svg"
 width="700.000000pt" height="700.000000pt" viewBox="0 0 700.000000 700.000000"
 preserveAspectRatio="xMidYMid meet">
<metadata>
Created by potrace 1.11, written by Peter Selinger 2001-2013
</metadata>
<g transform="translate(0.000000,700.000000) scale(0.100000,-0.100000)"
fill="#000000" stroke="none">
<path d="M3428 6565 l-3 -436 -65 -23 c-246 -86 -384 -333 -325 -581 7 -33 11
-63 7 -67 -4 -3 -229 -132 -500 -287 l-493 -281 -60 50 c-105 87 -194 120
-324 120 -131 0 -239 -41 -333 -125 l-52 -47 -375 218 c-209 120 -380 213
-384 208 -5 -5 -24 -38 -44 -74 l-36 -65 82 -47 c45 -25 154 -87 242 -138 88
-51 221 -128 296 -171 l136 -79 -13 -52 c-57 -219 52 -455 258 -558 44 -22 89
-40 99 -40 18 0 19 -19 19 -590 0 -571 -1 -590 -19 -590 -10 0 -54 -18 -98
-40 -207 -103 -316 -339 -259 -558 l13 -52 -281 -162 c-155 -89 -325 -187
-378 -218 l-97 -56 41 -69 c22 -39 42 -72 44 -74 2 -2 34 14 71 36 37 22 207
120 376 218 l308 178 37 -36 c55 -53 129 -95 205 -119 55 -16 86 -19 165 -16
122 6 202 36 295 114 l66 54 278 -158 c153 -87 375 -214 493 -281 118 -67 218
-125 222 -129 4 -4 0 -34 -7 -67 -60 -251 83 -500 335 -585 l55 -19 3 -435 2
-436 85 0 85 0 2 436 3 435 55 19 c236 80 381 310 341 543 -7 39 -13 81 -14
91 -2 15 20 32 88 71 50 28 274 156 498 284 l408 231 66 -54 c93 -78 173 -108
295 -114 79 -3 110 0 165 16 76 24 150 66 205 119 l37 36 78 -46 c713 -412
675 -391 684 -376 5 8 24 41 43 74 l34 60 -377 218 -378 217 13 52 c57 219
-52 455 -258 558 -44 22 -89 40 -99 40 -18 0 -19 19 -19 590 0 571 1 590 19
590 10 0 55 18 99 40 168 84 272 253 272 440 0 36 -6 89 -14 118 l-13 53 66
38 c199 115 556 320 618 355 l72 40 -31 56 c-51 89 -52 91 -68 85 -8 -4 -87
-48 -175 -99 -88 -51 -251 -146 -363 -210 l-202 -118 -52 47 c-94 84 -202 125
-333 125 -130 0 -219 -33 -324 -120 l-60 -50 -248 141 c-629 358 -739 421
-746 428 -4 4 -1 36 8 72 28 121 14 228 -48 342 -58 110 -154 190 -277 233
l-65 23 -3 436 -2 435 -85 0 -85 0 -2 -435z m-252 -1286 c37 -39 136 -95 205
-115 70 -21 198 -21 270 0 64 19 160 73 204 117 17 16 35 29 40 29 6 -1 233
-128 505 -284 404 -230 495 -286 493 -302 -2 -10 -8 -51 -14 -91 -38 -240 129
-482 374 -543 l47 -12 0 -578 0 -577 -63 -17 c-236 -64 -396 -306 -357 -539 6
-40 12 -80 13 -91 2 -14 -96 -75 -464 -285 -256 -146 -482 -275 -501 -285
l-36 -19 -48 43 c-106 93 -258 139 -399 119 -88 -12 -198 -63 -260 -120 l-46
-42 -32 16 c-18 8 -243 137 -502 285 -370 213 -470 274 -468 288 1 11 7 51 13
91 39 233 -120 473 -357 539 l-63 17 0 577 0 578 48 12 c243 60 413 309 372
545 -6 39 -12 79 -13 89 -2 16 95 75 493 303 272 155 500 283 506 283 5 0 23
-14 40 -31z"/>
</g>
</svg>
